<?xml version="1.0" encoding="UTF-8" standalone="no"?>
<!-- Created with Inkscape (http://www.inkscape.org/) -->

<svg
   xmlns:dc="http://purl.org/dc/elements/1.1/"
   xmlns:cc="http://creativecommons.org/ns#"
   xmlns:rdf="http://www.w3.org/1999/02/22-rdf-syntax-ns#"
   xmlns:svg="http://www.w3.org/2000/svg"
   xmlns="http://www.w3.org/2000/svg"
   xmlns:sodipodi="http://sodipodi.sourceforge.net/DTD/sodipodi-0.dtd"
   xmlns:inkscape="http://www.inkscape.org/namespaces/inkscape"
   width="600"
   height="667.21478"
   id="svg2"
   version="1.1"
   inkscape:version="0.48.2 r9819"
   sodipodi:docname="drawing.svg">
  <defs
     id="defs4" />
  <sodipodi:namedview
     id="base"
     pagecolor="#ffffff"
     bordercolor="#666666"
     borderopacity="1.0"
     inkscape:pageopacity="0.0"
     inkscape:pageshadow="2"
     inkscape:zoom="0.35355339"
     inkscape:cx="632.87421"
     inkscape:cy="33.193637"
     inkscape:document-units="px"
     inkscape:current-layer="layer2"
     showgrid="false"
     showguides="false"
     inkscape:guide-bbox="true"
     inkscape:window-width="1680"
     inkscape:window-height="988"
     inkscape:window-x="-8"
     inkscape:window-y="-8"
     inkscape:window-maximized="1"
     fit-margin-top="0"
     fit-margin-left="0"
     fit-margin-right="0"
     fit-margin-bottom="0">
    <sodipodi:guide
       orientation="0,1"
       position="300.33303,-647.6993"
       id="guide3061" />
    <sodipodi:guide
       orientation="1,0"
       position="469.84377,50.70008"
       id="guide3063" />
  </sodipodi:namedview>
  <metadata
     id="metadata7">
    <rdf:RDF>
      <cc:Work
         rdf:about="">
        <dc:format>image/svg+xml</dc:format>
        <dc:type
           rdf:resource="http://purl.org/dc/dcmitype/StillImage" />
        <dc:title></dc:title>
      </cc:Work>
    </rdf:RDF>
  </metadata>
  <g
     inkscape:groupmode="layer"
     id="layer2"
     inkscape:label="Layer"
     style="display:inline"
     transform="translate(-69.577693,-113.60883)">
    <path
       style="fill:#000000"
       d="m 272.22977,113.61017 c -0.30369,0.005 -0.60041,0.0303 -0.88537,0.0714 -0.70672,0.10204 2.19292,2.51614 10.91005,11.20993 9.771,9.74484 18.15664,19.05019 22.99108,25.53295 5.93764,8.05533 12.26998,18.59896 16.43648,29.10299 0.84458,1.58406 3.64616,11.94945 4.56965,16.922 0.52684,2.83677 1.04571,5.43412 1.1567,5.76919 0.81683,2.46595 3.86147,-8.44799 4.81241,-12.95212 1.18215,-5.59919 1.22222,-11.4164 1.04246,-17.1362 -0.18322,-5.82985 -0.46281,-11.78323 -2.15631,-17.36469 -1.44206,-4.75279 -3.59837,-9.42781 -6.6974,-13.30912 -6.56301,-8.21971 -15.11094,-15.05812 -24.36197,-20.06364 -6.4286,-3.47837 -13.79763,-4.89984 -20.92045,-6.54032 -2.23646,-0.51508 -4.77147,-1.28006 -6.89733,-1.24237 z m 194.69586,0 c -2.12585,-0.0377 -4.66086,0.72729 -6.89732,1.24237 -7.12283,1.64048 -14.49186,3.06195 -20.92045,6.54032 -9.25103,5.00552 -17.79896,11.84393 -24.36197,20.06364 -3.09903,3.88131 -5.25534,8.55633 -6.6974,13.30912 -1.6935,5.58146 -1.97309,11.53484 -2.15631,17.36469 -0.17976,5.7198 -0.1397,11.53701 1.04245,17.1362 0.95095,4.50413 3.99558,15.41807 4.81242,12.95212 0.11099,-0.33507 0.62985,-2.93242 1.15669,-5.76919 0.9235,-4.97255 3.7108,-15.33794 4.55538,-16.922 4.1665,-10.50403 10.51312,-21.04766 16.45076,-29.10299 4.83443,-6.48276 13.2058,-15.78811 22.97679,-25.53295 8.71713,-8.69379 11.63105,-11.10789 10.92433,-11.20993 -0.28496,-0.0412 -0.58167,-0.066 -0.88537,-0.0714 z M 369.5777,138.0721 c -0.81322,-0.0651 -1.42218,5.67601 -2.02778,8.53954 -0.9078,4.29245 -1.27286,8.69745 -2.39907,12.93784 -1.84406,6.94319 -4.29386,13.7349 -7.09724,20.34924 -2.40346,5.67074 -6.37778,13.44005 -8.29678,16.50788 -5.50288,8.79721 -8.95137,13.65347 -13.88033,19.5924 -6.07154,7.31563 -7.4085,8.79095 -13.0378,14.42297 -10.84366,10.84891 -19.31934,15.70067 -29.9598,22.07714 -7.30929,4.38022 -15.26904,7.58228 -23.07675,10.99574 -17.53353,7.63503 -36.34031,14.16317 -55.8926,20.5206 -12.76496,4.34838 -26.06658,7.37262 -38.27086,13.1092 -18.24771,8.57727 -36.28761,18.45125 -51.60853,31.55918 -11.53055,9.86504 -21.06132,22.05741 -29.474279,34.68656 -5.116704,7.6809 -8.959872,15.2416 -12.566552,24.6761 -2.9767,6.317 -4.79867,12.7438 -6.68312,19.2782 -1.48676,5.1555 -3.01844,9.7808 -3.62716,15.6797 -0.25796,1.885 -0.75241,4.4554 -1.09958,5.712 -0.93986,3.4022 -1.28843,7.5894 -0.74256,9.0251 0.31661,1.2769 1.90897,1.5073 2.35622,0 0.53207,-1.4136 0.70248,-1.7826 1.48514,-3.0845 1.75707,-2.9167 4.37635,-7.0169 6.94016,-10.2532 9.633243,-12.16 19.736431,-24.166 31.530621,-34.2438 14.35725,-12.2679 30.61857,-22.2786 47.15313,-31.4021 18.14653,-10.01305 36.86725,-17.00859 56.7494,-25.40445 7.78232,-3.36078 14.41968,-5.58176 23.23384,-10.33884 2.60506,-1.77336 3.73374,-1.17968 2.65611,1.39946 -0.36452,0.87241 -0.71176,2.66538 -0.78541,3.98416 -0.1671,2.9925 0.61173,3.74869 2.92744,2.8132 1.83864,-0.74277 2.72275,-1.02254 7.83981,-2.61327 2.22452,-0.69154 4.14886,-1.54697 4.28405,-1.89927 0.26447,-0.68919 -3.7871,-5.01471 -7.86837,-8.39674 -2.33666,-1.93631 -4.68739,-4.78036 -4.28405,-5.1837 0.1089,-0.1089 1.99934,-0.012 3.08451,0.12852 2.36896,0.30672 2.89732,0.25207 10.13892,0.49981 11.43955,0.39135 11.60275,0.62961 10.02469,-3.4558 -1.26173,-3.2539 -2.56255,-6.34609 -3.94133,-9.68196 -0.6545,-1.26151 -1.06241,-2.48727 -0.91393,-2.72751 0.15229,-0.24643 3.60404,-0.45816 7.92549,-0.48553 4.21315,-0.0267 8.78516,-0.19431 10.16748,-0.38556 l 2.51331,-0.35701 c 0.95391,-0.98536 -0.1093,-4.6297 -0.38556,-6.92588 -0.20984,-1.74413 -0.79955,-3.80138 -0.95677,-5.1837 -0.15722,-1.38232 -0.3967,-3.26053 -0.52837,-4.16981 -0.15093,-1.04231 -0.0289,-1.65562 0.44269,-1.88498 0.49409,-0.24033 1.36988,-0.0584 2.69895,0.52836 1.06284,0.46922 3.16163,1.31123 4.66962,1.85642 1.50798,0.54519 3.77938,1.38298 5.0409,1.87071 2.65116,1.02499 4.1223,1.12378 4.64105,0.31416 0.47162,-0.73606 1.47081,-3.38603 1.94211,-5.14086 1.37224,-5.10943 11.02575,-19.23606 13.72324,-20.0922 0.75246,-0.23883 3.35713,1.36445 4.58394,2.44191 0.43504,0.38208 7.56921,6.03693 9.19643,7.06868 1.47219,0.93345 2.57656,0.75628 2.95599,-0.48552 0.13613,-0.44553 0.63906,-1.63651 1.11385,-2.64184 1.83334,-3.88397 3.71325,-7.2232 6.626,-13.966 0.56741,-2.58341 1.47094,-1.86521 5.22655,4.14125 5.2746,8.43583 12.51529,15.82159 21.23461,21.64874 3.29943,2.20501 2.61501,1.831 4.29833,2.69895 1.68333,-0.86795 0.99891,-0.49394 4.29833,-2.69895 8.71933,-5.82715 15.96002,-13.21291 21.23462,-21.64874 3.7556,-6.00646 4.65913,-6.72466 5.22654,-4.14125 2.91276,6.7428 4.79267,10.08203 6.626,13.966 0.4748,1.00533 0.97773,2.19631 1.11386,2.64184 0.37943,1.2418 1.48379,1.41897 2.95599,0.48552 1.62722,-1.03175 8.76138,-6.6866 9.19643,-7.06868 1.22681,-1.07746 3.83147,-2.68074 4.58394,-2.44191 2.69749,0.85614 12.351,14.98277 13.72324,20.0922 0.4713,1.75483 1.47049,4.4048 1.9421,5.14086 0.51876,0.80962 1.9899,0.71083 4.64106,-0.31416 1.26151,-0.48773 3.53291,-1.32552 5.0409,-1.87071 1.50799,-0.54519 3.60677,-1.3872 4.66962,-1.85642 1.32907,-0.58675 2.20486,-0.76869 2.69895,-0.52836 0.47156,0.22936 0.59362,0.84267 0.44268,1.88498 -0.13166,0.90928 -0.37114,2.78749 -0.52836,4.16981 -0.15723,1.38232 -0.74693,3.43957 -0.95677,5.1837 -0.27627,2.29618 -1.33947,5.94052 -0.38557,6.92588 l 2.51331,0.35701 c 1.38232,0.19125 5.95434,0.35888 10.16748,0.38556 4.32145,0.0274 7.7732,0.2391 7.9255,0.48553 0.14848,0.24024 -0.25943,1.466 -0.91393,2.72751 -1.37879,3.33587 -2.6796,6.42806 -3.94133,9.68196 -1.57807,4.08541 -1.41486,3.84715 10.02468,3.4558 7.24161,-0.24774 7.76997,-0.19309 10.13892,-0.49981 1.08518,-0.14049 2.97562,-0.23742 3.08452,-0.12852 0.40334,0.40334 -1.94739,3.24739 -4.28405,5.1837 -4.08127,3.38203 -8.13284,7.70755 -7.86838,8.39674 0.13519,0.3523 2.05953,1.20773 4.28406,1.89927 5.11705,1.59073 6.00117,1.8705 7.83981,2.61327 2.3157,0.93549 3.09454,0.1793 2.92743,-2.8132 -0.0736,-1.31878 -0.42089,-3.11175 -0.7854,-3.98416 -1.07764,-2.57914 0.051,-3.17282 2.65611,-1.39946 8.81416,4.75708 15.45152,6.97806 23.23384,10.33884 19.88215,8.39586 38.60286,15.3914 56.7494,25.40445 16.53456,9.1235 32.79586,19.1342 47.15312,31.4021 11.79419,10.0778 21.89738,22.0838 31.53062,34.2438 2.56381,3.2363 5.18309,7.3365 6.94017,10.2532 0.78264,1.3019 0.95309,1.6709 1.48513,3.0845 0.44724,1.5073 2.03953,1.2769 2.35625,0 0.5458,-1.4357 0.19723,-5.6229 -0.74256,-9.0251 -0.3473,-1.2566 -0.84164,-3.827 -1.0996,-5.712 -0.60872,-5.8989 -2.14038,-10.5242 -3.62716,-15.6797 -1.88444,-6.5344 -3.70641,-12.9612 -6.68312,-19.2782 -3.6067,-9.4345 -7.44987,-16.9952 -12.56656,-24.6761 -8.41296,-12.62915 -17.9437,-24.82152 -29.47427,-34.68656 -15.32091,-13.10793 -33.36081,-22.98191 -51.60854,-31.55918 -12.20428,-5.73658 -25.5059,-8.76082 -38.27086,-13.1092 -19.55229,-6.35743 -38.35907,-12.88557 -55.89259,-20.5206 -7.80771,-3.41346 -15.76747,-6.61552 -23.07676,-10.99574 -10.64046,-6.37647 -19.11613,-11.22823 -29.9598,-22.07714 -5.62929,-5.63202 -6.96625,-7.10734 -13.03779,-14.42297 -4.92896,-5.93893 -8.37745,-10.79519 -13.88033,-19.5924 -1.919,-3.06783 -5.89332,-10.83714 -8.29678,-16.50788 -2.80339,-6.61434 -5.25319,-13.40605 -7.09724,-20.34924 -1.12621,-4.24039 -1.49127,-8.64539 -2.39907,-12.93784 -0.6056,-2.86353 -1.21456,-8.60466 -2.02779,-8.53954 z m -120.21048,11.89538 c -4.05891,-0.0446 -8.14838,0.50218 -12.00962,1.52798 -10.13734,2.69314 -17.68344,7.9785 -27.53217,15.23694 -2.25475,1.66173 -3.47356,3.06901 -2.57044,3.62717 0.36892,0.228 8.44881,-1.78843 13.83749,-2.05635 10.69011,-0.53149 21.47308,1.56338 31.80194,4.36974 10.71072,2.91011 20.77561,7.932 30.75949,12.78075 5.68638,2.76163 10.05147,5.49117 16.53644,9.26783 4.89334,2.87857 4.85715,1.30841 1.27094,-3.95561 -2.10343,-3.21623 -4.22611,-7.23567 -6.6974,-10.61017 -3.85099,-5.25843 -7.65428,-10.71968 -12.62368,-14.93705 -6.94886,-5.89729 -14.67423,-11.64605 -23.4766,-14.00885 -3.00112,-0.80559 -6.13946,-1.2077 -9.29639,-1.24238 z m 240.42097,0 c -3.15694,0.0347 -6.29527,0.43679 -9.2964,1.24238 -8.80237,2.3628 -16.52774,8.11156 -23.4766,14.00885 -4.96939,4.21737 -8.77269,9.67862 -12.62367,14.93705 -2.47129,3.3745 -4.59397,7.39394 -6.6974,10.61017 -3.58621,5.26402 -3.62241,6.83418 1.27094,3.95561 6.48497,-3.77666 10.85006,-6.5062 16.53643,-9.26783 9.98389,-4.84875 20.04878,-9.87064 30.75949,-12.78075 10.32887,-2.80636 21.11183,-4.90123 31.80195,-4.36974 5.38868,0.26792 13.46856,2.28435 13.83748,2.05635 0.90313,-0.55816 -0.31568,-1.96544 -2.57043,-3.62717 -9.84873,-7.25844 -17.39483,-12.5438 -27.53217,-15.23694 -3.86125,-1.0258 -7.95071,-1.57256 -12.00962,-1.52798 z m -263.54057,27.14661 c -7.5423,0.12048 -14.79838,2.08624 -22.2485,4.9695 -2.76237,1.06906 -12.00075,6.42203 -14.85138,8.61094 -7.98308,6.12996 -15.27109,13.06935 -24.4191,23.24812 -7.82123,8.70251 -8.93938,10.09314 -8.93938,11.12425 0,0.82158 2.27248,0.51017 5.08374,-0.714 6.13055,-2.66359 13.68417,-5.79294 20.73481,-8.11114 6.96735,-2.29082 14.00383,-4.57146 21.24889,-5.71207 7.83406,-1.23334 15.8553,-1.79713 23.76221,-1.18525 8.79473,0.68057 17.14005,4.50379 25.91851,5.36934 10.81995,1.06683 21.86825,1.38531 32.61591,-0.25704 5.52483,-0.84425 10.76181,-3.03646 16.03663,-4.88382 2.87703,-1.00761 7.67181,-3.06525 8.4967,-3.37012 1.87768,-0.69395 2.57432,-1.38461 2.25627,-2.21343 -0.18571,-0.48397 -1.65016,-0.71265 -5.88343,-0.92821 -9.17893,-0.46741 -20.52389,-3.80258 -30.3168,-7.28289 -5.6453,-2.00628 -10.85526,-5.07717 -16.208,-7.76841 -10.84742,-5.45385 -19.38582,-10.68576 -31.77338,-10.89577 -0.50554,-0.009 -1.01088,-0.008 -1.5137,0 z m 285.14647,0 c -12.38756,0.21001 -20.94024,5.44192 -31.78767,10.89577 -5.35273,2.69124 -10.54841,5.76213 -16.19371,7.76841 -9.79291,3.48031 -21.13788,6.81548 -30.3168,7.28289 -4.23327,0.21556 -5.712,0.44424 -5.89771,0.92821 -0.31806,0.82882 0.39287,1.51948 2.27054,2.21343 0.8249,0.30487 5.61967,2.36251 8.4967,3.37012 5.27483,1.84736 10.51181,4.03957 16.03664,4.88382 10.74766,1.64235 21.79595,1.32387 32.61591,0.25704 8.77846,-0.86555 17.12377,-4.68877 25.91851,-5.36934 7.90691,-0.61188 15.92814,-0.0481 23.7622,1.18525 7.24507,1.14061 14.28154,3.42125 21.2489,5.71207 7.05063,2.3182 14.60426,5.44755 20.73481,8.11114 2.81125,1.22417 5.08374,1.53558 5.08374,0.714 0,-1.03111 -1.13241,-2.42174 -8.95367,-11.12425 -9.14801,-10.17877 -16.42173,-17.11816 -24.40481,-23.24812 -2.85063,-2.18891 -12.08901,-7.54188 -14.85138,-8.61094 -7.9468,-3.07548 -15.67352,-5.10663 -23.7622,-4.9695 z m -188.88383,30.65953 c -0.84299,0.0609 -2.84214,1.48439 -7.01157,4.81241 -5.60924,4.47729 -10.11272,6.99684 -16.22227,9.09647 -7.85829,2.70061 -14.0354,4.09823 -21.2489,5.1123 -8.68147,1.22045 -17.50988,0.9972 -26.27551,1.14242 -6.77776,0.11228 -13.55718,-0.10348 -20.33497,-0.2142 -12.33946,-0.20158 -23.92446,-1.06907 -37.0142,-0.82825 -8.57523,0.4895 -17.26135,0.92818 -25.59007,3.02739 -8.09974,2.0415 -16.13861,4.91968 -23.30524,9.21071 -5.5379,3.31584 -10.33145,7.83249 -14.77997,12.50943 -4.25397,4.4724 -7.9567,9.48092 -11.2385,14.70858 -3.14797,5.01446 -5.76503,10.37879 -8.02546,15.85099 -2.36233,5.71891 -4.1091,11.68165 -5.74062,17.65029 -0.53106,1.94277 -0.91539,4.16176 -1.31378,5.89771 -0.39839,1.73596 -1.17519,4.34923 -1.02817,4.81242 0.28295,0.8915 1.73944,0.60579 3.27016,-0.41412 0.82412,-0.54912 9.4542,-6.33848 14.39441,-9.15359 8.90734,-5.07574 18.0807,-9.70735 27.43221,-13.90889 6.49632,-2.91874 13.13072,-5.54619 19.878,-7.82554 14.51494,-4.90339 29.32325,-8.98212 44.22569,-12.53799 7.83963,-1.87061 15.91833,-2.64279 23.73364,-4.61249 11.38274,-2.86881 22.91565,-5.67117 33.62981,-10.46737 11.72932,-5.25063 22.90723,-11.94077 33.05859,-19.82087 4.06478,-3.15533 8.65016,-7.93454 10.98146,-10.86722 4.94623,-6.22214 6.25999,-7.9203 7.56849,-9.72479 0.81682,-1.12646 1.48513,-2.35423 1.48513,-2.74179 0,-0.48197 -0.14518,-0.74168 -0.52836,-0.71401 z m 94.12061,0 c -0.38318,-0.0277 -0.51409,0.23204 -0.51409,0.71401 0,0.38756 0.66831,1.61533 1.48514,2.74179 1.30849,1.80449 2.62226,3.50265 7.56849,9.72479 2.3313,2.93268 6.91668,7.71189 10.98145,10.86722 10.15136,7.8801 21.32928,14.57024 33.0586,19.82087 10.71416,4.7962 22.24707,7.59856 33.6298,10.46737 7.81532,1.9697 15.89402,2.74188 23.73365,4.61249 14.90244,3.55587 29.71074,7.6346 44.22569,12.53799 6.74728,2.27935 13.38164,4.9068 19.878,7.82554 9.35148,4.20154 18.52483,8.83315 27.43218,13.90889 4.94021,2.81511 13.55602,8.60447 14.38016,9.15359 1.5307,1.01991 3.00153,1.30562 3.28444,0.41412 0.14705,-0.46319 -0.62979,-3.07646 -1.02817,-4.81242 -0.39839,-1.73595 -0.78274,-3.95494 -1.31378,-5.89771 -1.63155,-5.96864 -3.3783,-11.93138 -5.74063,-17.65029 -2.26042,-5.4722 -4.87751,-10.83653 -8.02545,-15.85099 -3.28184,-5.22766 -6.99884,-10.23618 -11.25278,-14.70858 -4.44856,-4.67694 -9.22782,-9.19359 -14.7657,-12.50943 -7.16663,-4.29103 -15.2055,-7.16921 -23.30524,-9.21071 -8.32871,-2.09921 -17.01483,-2.53789 -25.59006,-3.02739 -13.08974,-0.24082 -24.67475,0.62667 -37.01421,0.82825 -6.77779,0.11072 -13.5572,0.32648 -20.33496,0.2142 -8.76563,-0.14522 -17.59405,0.078 -26.27552,-1.14242 -7.21349,-1.01407 -13.3906,-2.41169 -21.24889,-5.1123 -6.10955,-2.09963 -10.61303,-4.61918 -16.22228,-9.09647 -4.16942,-3.32802 -6.18285,-4.75154 -7.02584,-4.81241 z m -124.55166,123.73768 -5.42646,3.64145 c -2.98517,1.99859 -7.89408,5.07446 -10.91005,6.8402 -10.77508,6.30841 -11.8405,6.9774 -12.19527,7.61133 -0.5465,0.97655 1.21715,2.87691 3.65572,3.95561 l 2.12775,0.9425 3.67,-1.4566 c 2.0142,-0.80121 4.3587,-1.47172 5.21227,-1.49941 1.42414,-0.0462 1.59439,0.0934 2.12774,1.77071 0.31967,1.0054 0.72218,2.6265 0.88537,3.5986 0.39498,2.3529 2.19037,3.926 7.31145,6.4118 6.8161,3.3086 9.64631,4.0326 16.67924,4.2412 8.90314,0.2642 8.22538,-0.096 8.22538,4.4269 0,2.0916 -0.29689,4.8067 -0.67117,6.0405 -0.77514,2.5552 -0.88522,4.2983 -0.27132,4.2983 0.56037,0 4.51102,-1.6529 6.11191,-2.5561 2.58763,-1.4599 2.74735,-0.9839 2.49903,7.4828 -0.33818,11.5311 -1.53862,17.0957 -7.96833,37.1142 -2.13921,6.6602 -4.1911,13.0912 -4.56966,14.2944 -0.37855,1.2032 -0.58377,2.4884 -0.44268,2.8561 0.14107,0.3676 0.43264,0.6711 0.6426,0.6711 1.17547,0 13.47516,-30.7532 17.36469,-43.4117 1.90523,-6.2006 3.75569,-17.7295 3.75569,-23.4052 0,-1.1036 0.30752,-2.2182 0.74257,-2.699 0.63298,-0.6994 0.67682,-1.1219 0.22848,-2.7846 -0.28998,-1.0754 -0.81619,-4.8547 -1.17098,-8.3967 -0.77751,-7.7624 -1.95426,-11.61563 -4.25549,-13.9946 -2.23843,-2.31406 -7.32802,-4.36439 -13.03779,-5.2551 -4.8986,-0.76417 -6.269,-1.53267 -6.269,-3.49864 0,-0.59755 -0.27258,-1.31598 -0.61405,-1.59938 -0.7278,-0.60402 -1.47579,-0.0914 -6.78308,4.65534 -3.60959,3.22834 -5.04324,3.72026 -5.31222,1.84214 -0.10987,-0.76713 0.57152,-1.44113 3.12736,-3.15592 3.16885,-2.12607 4.55537,-3.52787 4.55537,-4.56966 0,-0.28082 -2.03125,-1.38419 -4.51253,-2.45618 l -4.51254,-1.95639 z m 155.59675,0 -4.51253,1.95639 c -2.48128,1.07199 -4.51254,2.17536 -4.51254,2.45618 0,1.04179 1.40083,2.44359 4.56966,4.56966 2.55585,1.71479 3.22293,2.38879 3.11307,3.15592 -0.26897,1.87812 -1.70265,1.3862 -5.31222,-1.84214 -5.30729,-4.74673 -6.04099,-5.25936 -6.7688,-4.65534 -0.34144,0.2834 -0.62833,1.00183 -0.62833,1.59938 0,1.96597 -1.35613,2.73447 -6.25471,3.49864 -5.70979,0.89071 -10.79936,2.94104 -13.0378,5.2551 -2.30122,2.37897 -3.47797,6.2322 -4.25549,13.9946 -0.35478,3.542 -0.88099,7.3213 -1.17097,8.3967 -0.44835,1.6627 -0.41879,2.0852 0.2142,2.7846 0.43504,0.4808 0.74257,1.5954 0.74257,2.699 0,3.308 0.94821,11.1444 1.91354,15.8653 1.36382,6.6696 2.40935,9.9504 7.83981,24.4476 4.05836,10.8343 4.72379,12.4731 8.08258,19.9923 1.59984,3.5814 3.08875,6.5117 3.29872,6.5117 0.7895,0 0.86549,-1.4118 0.19992,-3.5272 -0.37855,-1.2032 -2.44469,-7.6342 -4.58393,-14.2944 -6.42969,-20.0185 -7.61586,-25.5831 -7.95406,-37.1142 -0.24831,-8.4667 -0.0886,-8.9427 2.49903,-7.4828 1.60089,0.9032 5.55154,2.5561 6.11192,2.5561 0.61388,0 0.50378,-1.7431 -0.27133,-4.2983 -0.3743,-1.2338 -0.68545,-3.9489 -0.68545,-6.0405 0,-4.5228 -0.67777,-4.1627 8.22538,-4.4269 7.03293,-0.2086 9.86315,-0.9326 16.67924,-4.2412 5.12108,-2.4858 6.93078,-4.0589 7.32573,-6.4118 0.16323,-0.9721 0.5514,-2.5932 0.87109,-3.5986 0.53333,-1.6773 0.71789,-1.81692 2.14203,-1.77071 0.85356,0.0277 3.19809,0.6982 5.21226,1.49941 l 3.65572,1.4566 2.14203,-0.9425 c 2.43855,-1.0787 4.18793,-2.97906 3.64144,-3.95561 -0.35478,-0.63393 -1.4202,-1.30292 -12.19526,-7.61133 -3.01598,-1.76574 -7.92488,-4.84161 -10.91005,-6.8402 l -5.42647,-3.64145 z m -220.2288,8.78231 c -0.26757,0 -1.89615,0.92535 -3.61289,2.05634 -4.42684,2.89725 -11.09853,5.93788 -16.65068,8.89655 -9.68523,5.16109 -19.58067,9.94569 -29.07443,15.45119 -9.94136,5.7649 -19.75968,11.7824 -29.16011,18.3928 -8.77813,6.1728 -17.85222,12.1546 -25.37586,19.8066 -9.31162,9.4706 -17.68692,20.1261 -23.990689,31.8162 -4.553437,8.4443 -7.582662,17.5458 -9.667676,27.1038 -0.904165,1.6837 -3.269276,15.0598 -4.084126,22.7055 -0.78339,7.3504 -0.92525,14.7723 -0.77113,22.1628 0.19587,9.3932 1.00625,18.7788 2.156304,28.1034 0.643112,5.2143 1.677137,10.375 2.656112,15.5368 0.797368,4.2042 1.689928,8.3913 2.627551,12.5666 0.24887,1.1082 0.527526,2.9988 0.78541,3.313 0.74978,0.9134 2.175123,0.663 2.598991,-0.457 0.21402,-0.5655 0.63048,-2.8685 0.928211,-5.1123 0.297731,-2.2439 0.685669,-3.6679 1.128134,-5.4836 0.863919,-3.5451 1.854366,-7.0693 2.984558,-10.5388 1.63978,-5.0338 3.36007,-10.0572 5.51214,-14.8942 3.4352,-7.7209 7.49569,-15.1709 11.76687,-22.4627 2.77716,-4.7412 5.79158,-9.3457 8.9965,-13.8089 4.30483,-5.995 8.83399,-11.8378 13.70897,-17.379 8.42169,-9.5727 17.35127,-18.7289 26.76104,-27.3322 11.03658,-10.0907 23.08129,-19.0108 34.72938,-28.389 6.73728,-5.4244 13.64718,-10.6931 20.33496,-16.1223 7.10162,-5.699 11.95996,-10.4235 15.17982,-14.7514 3.63926,-4.8917 6.9818,-12.6603 7.32573,-17.0649 0.19868,-2.5444 0.12427,-2.7614 -1.35662,-4.3411 -4.57399,-4.9763 -7.30691,-10.248 -10.52448,-16.5222 -2.07597,-4.44706 -3.03324,-7.03738 -3.32728,-9.01077 -0.28983,-1.9451 -1.68545,-4.24121 -2.58471,-4.24121 z m 284.26109,0 c -0.89927,0 -2.29489,2.29611 -2.58471,4.24121 -0.29405,1.97339 -1.25131,4.56371 -3.32728,9.01077 -3.21758,6.2742 -5.9505,11.5459 -10.52449,16.5222 -1.48089,1.5797 -1.5553,1.7967 -1.35661,4.3411 0.34393,4.4046 3.67219,12.1732 7.31144,17.0649 3.21987,4.3279 8.09249,9.0524 15.19411,14.7514 6.68778,5.4292 13.59768,10.6979 20.33496,16.1223 11.64809,9.3782 23.6928,18.2983 34.72938,28.389 9.40974,8.6033 18.33935,17.7595 26.76104,27.3322 4.875,5.5412 9.40412,11.384 13.70896,17.379 3.20493,4.4632 6.21935,9.0677 8.99651,13.8089 4.27117,7.2918 8.33162,14.7418 11.76686,22.4627 2.15204,4.837 3.87237,9.8604 5.51215,14.8942 1.13021,3.4695 2.10634,6.9937 2.97027,10.5388 0.44244,1.8157 0.8447,3.2397 1.14242,5.4836 0.29776,2.2438 0.71423,4.5468 0.92823,5.1123 0.42384,1.12 1.84925,1.3704 2.59895,0.457 0.25791,-0.3142 0.53652,-2.2048 0.78543,-3.313 0.9376,-4.1753 1.83019,-8.3624 2.62755,-12.5666 0.979,-5.1618 2.01298,-10.3225 2.65611,-15.5368 1.15005,-9.3246 1.94617,-18.7102 2.14203,-28.1034 0.15413,-7.3905 0.0266,-14.8124 -0.75683,-22.1628 -0.8149,-7.6457 -3.17997,-21.0218 -4.08417,-22.7055 -2.08495,-9.558 -5.12843,-18.6595 -9.68191,-27.1038 -6.30375,-11.6901 -14.67915,-22.3456 -23.99069,-31.8162 -7.52371,-7.652 -16.58351,-13.6338 -25.36159,-19.8066 -9.40046,-6.6104 -19.21877,-12.6279 -29.16013,-18.3928 -9.49376,-5.5055 -19.38919,-10.2901 -29.07443,-15.45119 -5.55215,-2.95867 -12.22384,-5.9993 -16.65068,-8.89655 -1.71673,-1.13099 -3.34531,-2.05634 -3.61288,-2.05634 z m -274.80762,74.09978 c -0.48646,0.01 -0.96871,0.4582 -2.15631,1.6137 -1.07581,1.0467 -3.21464,2.9004 -4.75529,4.1127 -4.38583,3.4509 -11.71692,9.516 -17.53605,14.323 -7.96419,6.579 -16.04396,13.014 -23.77649,19.8637 -8.7269,7.7306 -17.72135,15.2677 -25.50438,23.9479 -4.31843,4.8162 -8.24265,10.0201 -11.6669,15.5082 -4.37927,7.0187 -8.22624,14.4207 -11.25278,22.12 -2.97087,7.5577 -5.20216,15.4376 -6.6974,23.4195 -1.52092,8.1189 -2.27567,16.416 -2.27055,24.6761 0.007,11.6893 1.28745,23.3928 3.25588,34.915 1.48635,8.7004 3.76826,17.2778 6.44036,25.6901 3.18397,10.0237 7.06241,19.834 11.39558,29.4171 4.49188,9.9342 12.24947,24.5821 15.09414,29.0173 3.21381,5.0575 5.65667,9.6076 8.68234,14.7372 0.87451,1.977 1.86594,2.2131 2.48475,0.5854 0.23727,-0.624 0.4452,-8.5503 0.47125,-17.6503 0.026,-9.0836 -0.0228,-11.6794 0.4284,-17.4931 0.63165,-8.1384 1.70993,-16.2505 3.19876,-24.2763 2.21438,-11.9372 4.97402,-23.8007 8.51098,-35.4149 2.86379,-9.4036 6.22026,-18.4101 10.25317,-27.6464 3.55347,-8.3716 10.02956,-21.0096 13.8946,-27.1323 3.59373,-5.7191 7.23619,-12.3417 11.55266,-17.8788 4.34794,-6.2267 9.19895,-12.1222 14.06597,-17.9073 1.35219,-1.5837 10.90008,-12.3274 14.56577,-16.3936 3.97653,-4.416 8.0999,-9.3605 11.92395,-14.1374 2.9724,-3.7636 3.06696,-3.9471 2.87031,-6.0548 -0.11162,-1.1964 -0.54611,-2.5451 -0.95677,-2.9988 -1.28351,-1.4769 -1.71845,-3.5086 -2.58471,-5.2551 -2.24617,-4.5288 -3.01096,-6.5072 -6.7688,-13.5662 -1.67043,-3.1379 -1.9525,-3.431 -3.37012,-3.5558 -1.55651,-0.1369 -4.45407,0.5455 -10.12464,4.6696 -5.19891,3.7693 -10.33121,8.3301 -15.15127,12.6666 -4.26732,3.377 -12.6498,11.699 -18.26433,18.2072 -6.92948,8.0324 -13.07111,16.7406 -18.92123,25.59 -4.82012,7.3353 -8.95359,15.4988 -13.06636,23.9907 -3.9466,8.8048 -7.54182,17.7894 -10.53877,26.961 -2.10466,6.4409 -3.75333,13.0324 -5.21226,19.6495 -1.33215,6.0421 -2.36266,11.6238 -3.22732,18.2786 -0.52248,4.0213 -1.06933,8.1854 -1.21381,9.2536 -0.14448,1.0681 -0.42539,1.9421 -0.62833,1.9421 -0.57373,0 -0.68817,-5.9828 -0.38556,-19.4211 0.28401,-12.6128 1.05234,-18.5325 2.68467,-27.6464 1.11081,-6.202 2.81083,-12.3042 4.81242,-18.2786 2.98082,-8.8972 6.55336,-17.6206 10.68156,-26.047 2.97153,-6.0654 6.36798,-11.9326 10.09609,-17.5646 5.92127,-8.9454 12.36047,-17.5726 19.40675,-25.6615 7.07819,-8.1255 19.20989,-19.7124 22.87683,-22.8483 4.69899,-4.0184 8.52406,-7.1763 12.85216,-10.5959 4.10014,-3.2394 4.72638,-3.9668 4.72673,-5.4978 1.6e-4,-0.657 -1.32701,-3.6879 -3.4558,-7.8684 -0.32511,-0.6385 -0.88907,-1.9751 -1.25665,-2.9703 -0.36758,-0.9952 -1.12868,-2.9445 -1.68506,-4.3269 -0.55638,-1.3823 -1.35371,-3.7399 -1.77074,-5.2408 -0.57111,-2.0554 -1.05518,-2.9054 -1.98495,-3.4272 -0.44968,-0.2524 -0.75057,-0.4049 -1.04245,-0.3999 z m 265.35415,0 c -0.29188,-0.01 -0.59278,0.1475 -1.04246,0.3999 -0.92976,0.5218 -1.41384,1.3718 -1.98494,3.4272 -0.41703,1.5009 -1.21436,3.8585 -1.77074,5.2408 -0.55638,1.3824 -1.31748,3.3317 -1.68506,4.3269 -0.36758,0.9952 -0.93154,2.3318 -1.25666,2.9703 -2.12878,4.1805 -3.45595,7.2114 -3.4558,7.8684 3.6e-4,1.531 0.62659,2.2584 4.72674,5.4978 4.3281,3.4196 8.15316,6.5775 12.85215,10.5959 3.66695,3.1359 15.78436,14.7228 22.86256,22.8483 7.04628,8.0889 13.49975,16.7161 19.42103,25.6615 3.7281,5.632 7.12455,11.4992 10.09608,17.5646 4.1282,8.4264 7.70074,17.1498 10.68157,26.047 2.00159,5.9744 3.7016,12.0766 4.81242,18.2786 1.63233,9.1139 2.40065,15.0336 2.68467,27.6464 0.30261,13.4383 0.18817,19.4211 -0.38556,19.4211 -0.20294,0 -0.49813,-0.874 -0.64261,-1.9421 -0.14449,-1.0682 -0.69133,-5.2323 -1.21382,-9.2536 -0.86466,-6.6548 -1.89516,-12.2365 -3.22732,-18.2786 -1.45892,-6.6171 -3.09332,-13.2086 -5.19798,-19.6495 -2.99694,-9.1716 -6.59217,-18.1562 -10.53876,-26.961 -4.11278,-8.4919 -8.24624,-16.6554 -13.06636,-23.9907 -5.85012,-8.8494 -11.99175,-17.5576 -18.92123,-25.59 -5.61453,-6.5082 -13.99701,-14.8302 -18.26434,-18.2072 -4.82006,-4.3365 -9.95235,-8.8973 -15.15126,-12.6666 -5.67057,-4.1241 -8.56813,-4.8065 -10.12464,-4.6696 -1.41763,0.1248 -1.6997,0.4179 -3.37012,3.5558 -3.75784,7.059 -4.52264,9.0374 -6.7688,13.5662 -0.86626,1.7465 -1.31548,3.7782 -2.59899,5.2551 -0.41066,0.4537 -0.83087,1.8024 -0.9425,2.9988 -0.19664,2.1077 -0.10208,2.2912 2.87032,6.0548 3.82405,4.7769 7.94741,9.7214 11.92394,14.1374 3.66569,4.0662 13.21358,14.8099 14.56578,16.3936 4.86702,5.7851 9.71803,11.6806 14.06597,17.9073 4.31646,5.5371 7.95893,12.1597 11.55265,17.8788 3.86505,6.1227 10.34114,18.7607 13.89461,27.1323 4.03291,9.2363 7.38938,18.2428 10.25316,27.6464 3.53697,11.6142 6.29661,23.4777 8.51099,35.4149 1.48883,8.0258 2.56711,16.1379 3.19875,24.2763 0.45123,5.8137 0.38811,8.4095 0.41413,17.4931 0.026,9.1 0.24826,17.0263 0.48553,17.6503 0.61881,1.6277 1.61024,1.3916 2.48475,-0.5854 3.02567,-5.1296 5.46852,-9.6797 8.68234,-14.7372 2.84467,-4.4352 10.60228,-19.0831 15.09416,-29.0173 4.33318,-9.5831 8.21158,-19.3934 11.39553,-29.4171 2.67216,-8.4123 4.95406,-16.9897 6.44038,-25.6901 1.96843,-11.5222 3.24862,-23.2257 3.25588,-34.915 0.005,-8.2601 -0.7496,-16.5572 -2.27057,-24.6761 -1.49519,-7.9819 -3.7265,-15.8618 -6.69737,-23.4195 -3.02658,-7.6993 -6.8735,-15.1013 -11.25278,-22.12 -3.42427,-5.4881 -7.36276,-10.692 -11.68118,-15.5082 -7.78304,-8.6802 -16.7632,-16.2173 -25.49011,-23.9479 -7.73252,-6.8497 -15.81229,-13.2847 -23.77648,-19.8637 -5.81913,-4.807 -13.15022,-10.8721 -17.53605,-14.323 -1.54066,-1.2123 -3.67949,-3.066 -4.7553,-4.1127 -1.1876,-1.1555 -1.66984,-1.6054 -2.1563,-1.6137 z m -183.42881,41.9695 c -0.89883,0 -0.93226,0.1842 -0.67116,3.2987 0.22898,2.7313 0.67622,4.0612 2.59899,7.8826 1.56174,3.1039 2.84851,5.0315 3.96988,5.9263 1.92452,1.5356 10.21117,5.7007 16.82205,8.4539 8.70218,3.6241 10.08268,4.2442 16.16515,7.24 3.36087,1.6554 6.67087,3.8414 7.65417,4.4697 1.01402,0.6479 1.42807,1.9607 1.39946,3.3701 l 0.12852,9.682 0.22848,8.4824 c 0.0677,1.2478 0.0769,2.1655 -1.15669,3.4701 0,0 -2.29849,2.0883 -3.49864,3.0702 -4.47733,3.6631 -8.7093,7.7775 -13.82321,10.4817 -4.5031,2.3811 -9.40907,4.5737 -14.49437,4.8695 -4.97769,0.2895 -8.39867,-0.6804 -14.6229,-3.0845 -2.60732,-1.0071 -5.03159,-1.7202 -5.38362,-1.5851 -0.94752,0.3636 -2.52759,5.9404 -2.52759,8.9394 0,5.2558 2.46643,10.917 6.31183,14.5372 1.44383,1.3593 2.97083,2.3991 3.52721,2.3991 0.66998,0 4.75954,-4.7933 7.42568,-6.8545 5.66583,-4.3804 11.40939,-9.0003 18.0787,-11.6098 7.105,-2.78 14.0717,-4.1378 22.53411,-3.9985 0.0319,5e-4 0.054,-4e-4 0.0857,0 0.0317,-4e-4 0.0537,5e-4 0.0857,0 8.46242,-0.1393 15.42911,1.2185 22.53411,3.9985 6.66932,2.6095 12.41288,7.2294 18.0787,11.6098 2.66614,2.0612 6.75571,6.8545 7.42569,6.8545 0.55638,0 2.08338,-1.0398 3.5272,-2.3991 3.8454,-3.6202 6.31184,-9.2814 6.31184,-14.5372 0,-2.999 -1.58008,-8.5758 -2.52759,-8.9394 -0.35203,-0.1351 -2.7763,0.578 -5.38363,1.5851 -6.22422,2.4041 -9.64521,3.374 -14.62289,3.0845 -5.0853,-0.2958 -9.99128,-2.4884 -14.49438,-4.8695 -5.1139,-2.7042 -9.34588,-6.8186 -13.8232,-10.4817 -1.20015,-0.9819 -3.49864,-3.0702 -3.49864,-3.0702 -1.23355,-1.3046 -1.22436,-2.2223 -1.1567,-3.4701 l 0.22849,-8.4824 0.12852,-9.682 c -0.0286,-1.4094 0.38543,-2.7222 1.39945,-3.3701 0.98331,-0.6283 4.2933,-2.8143 7.65418,-4.4697 6.08247,-2.9958 7.46296,-3.6159 16.16515,-7.24 6.61088,-2.7532 14.89752,-6.9183 16.82204,-8.4539 1.12137,-0.8948 2.40815,-2.8224 3.96989,-5.9263 1.92276,-3.8214 2.37001,-5.1513 2.59899,-7.8826 0.2611,-3.1145 0.22767,-3.2987 -0.67117,-3.2987 -0.52217,0 -2.3926,1.2761 -4.15553,2.8274 -1.76292,1.5514 -4.41066,3.3509 -5.86915,3.9985 -2.50174,1.1107 -3.0794,1.1705 -10.21032,1.1709 -6.35005,5e-4 -7.74001,0.1313 -8.73947,0.7855 -2.90341,1.9002 -9.97391,4.3843 -14.48009,5.098 -2.86819,0.4543 -5.09327,0.6798 -7.29717,0.6854 -2.2039,-0.01 -4.42897,-0.2311 -7.29716,-0.6854 -4.50618,-0.7137 -11.57669,-3.1978 -14.4801,-5.098 -0.99945,-0.6542 -2.38942,-0.785 -8.73946,-0.7855 -7.13093,-4e-4 -7.70858,-0.06 -10.21033,-1.1709 -1.45848,-0.6476 -4.10622,-2.4471 -5.86915,-3.9985 -1.76292,-1.5513 -3.63336,-2.8274 -4.15553,-2.8274 z m -29.31719,10.0532 c -1.72906,0 -1.86427,1.8831 0.44269,5.1837 3.03835,4.347 5.16806,6.2936 8.33962,8.7966 3.33614,2.6328 6.99725,5.0681 11.03857,6.3832 3.30485,1.0754 6.89219,1.0476 10.3674,1.0853 2.64637,0.029 7.73843,-0.3773 7.91122,-0.6569 0.58818,-0.9517 -0.96671,-1.9962 -2.41335,-2.2848 -3.2487,-0.6481 -10.4378,-1.9709 -15.22266,-4.1555 -4.67288,-2.1335 -9.46443,-5.3209 -12.80932,-8.5681 -3.34488,-3.2473 -6.09074,-5.7835 -7.65417,-5.7835 z m -7.06868,3.7842 c -0.30736,0.025 -0.58779,0.2023 -0.87109,0.4856 -0.62727,0.6272 -0.49288,1.155 1.25665,5.1837 3.28819,7.5716 6.87437,13.1296 12.30951,17.9216 3.54641,3.1267 7.99058,5.4241 12.59511,6.4975 5.40367,1.2596 10.05837,0.5878 16.65068,-0.2999 4.72421,-0.6362 10.02188,-1.4275 15.06558,-1.3995 4.22797,0.024 11.60407,1.2561 12.60939,1.3138 1.65773,0.095 1.84618,-0.014 1.97067,-1.0853 0.14459,-1.2438 -1.29419,-2.4473 -5.71207,-4.8124 -5.20333,-2.7856 -12.19913,-3.4859 -20.37781,-2.0421 -5.93755,1.0482 -14.82652,1.3186 -18.15009,0.5569 -8.6395,-1.9798 -14.62641,-6.7154 -23.07676,-18.2357 -2.18711,-2.9817 -3.34769,-4.1602 -4.26977,-4.0842 z m -7.52565,23.2482 c -0.60177,-0.01 -1.51528,1.0652 -3.07024,3.0131 -1.35428,1.6965 -4.52668,5.4493 -7.05441,8.3396 -8.40971,9.6324 -18.60813,21.69 -25.83283,34.7294 -4.97867,8.6235 -11.23337,21.1385 -13.02351,26.047 -2.51924,6.8273 -5.60069,13.4347 -7.55421,20.7919 -3.55014,11.4063 -6.90832,24.953 -8.65379,37.7425 -2.29699,16.8308 -2.35972,34.598 -2.34194,50.9088 0.91209,9.4903 1.58569,19.2097 3.76996,28.5604 3.06593,13.1249 6.38846,25.6881 13.02352,38.2851 2.24784,3.5318 4.86427,8.1371 7.89693,11.6669 2.29342,2.8252 3.70692,3.6769 4.35545,2.6276 0.27623,-0.447 -0.36788,-3.5759 -1.37089,-6.6546 -0.91087,-2.85 -1.08116,-5.9664 -1.8707,-8.8823 -0.79587,-3.3319 -1.80107,-12.1328 -2.51331,-22.1057 -0.64203,-8.9897 0.50268,-26.0629 2.35622,-35.0435 1.46323,-7.1701 2.18492,-15.6464 4.59822,-23.0768 4.01742,-18.0548 11.42248,-36.2574 19.23539,-53.0365 4.35211,-9.2133 10.06981,-19.7516 15.62251,-29.3172 6.54101,-10.9276 14.41446,-23.1546 22.09142,-34.0439 2.00285,-2.9357 4.19948,-5.6227 5.78347,-8.5824 -3.8607,-2.8556 -7.85915,-5.7528 -11.15281,-8.3111 -4.32275,-3.4097 -8.01594,-8.0801 -9.88188,-12.4809 -1.07784,-2.542 -1.55539,-5.0806 -2.85603,-15.3083 -0.51603,-4.0578 -0.78285,-5.8587 -1.55654,-5.8691 z m 189.32651,0 c -0.7737,0.01 -1.04051,1.8113 -1.55654,5.8691 -1.30064,10.2277 -1.77819,12.7663 -2.85603,15.3083 -1.86594,4.4008 -5.57341,9.0712 -9.89616,12.4809 -3.29366,2.5583 -7.27784,5.4555 -11.13854,8.3111 1.584,2.9597 3.78063,5.6467 5.78347,8.5824 7.67697,10.8893 15.55042,23.1163 22.09143,34.0439 5.5527,9.5656 11.27039,20.1039 15.62251,29.3172 7.81291,16.7791 15.21797,34.9817 19.23539,53.0365 2.4133,7.4304 3.12071,15.9067 4.58393,23.0768 1.85355,8.9806 3.01254,26.0538 2.37051,35.0435 -0.71224,9.9729 -1.71744,18.7738 -2.51331,22.1057 -0.78954,2.9159 -0.95983,6.0323 -1.8707,8.8823 -1.00301,3.0787 -1.64712,6.2076 -1.3709,6.6546 0.64854,1.0493 2.06204,0.1976 4.35545,-2.6276 3.03267,-3.5298 5.6491,-8.1351 7.89694,-11.6669 6.63506,-12.597 9.95759,-25.1602 13.02352,-38.2851 2.18427,-9.3507 2.85787,-19.0701 3.76996,-28.5604 0.0178,-16.3108 -0.045,-34.078 -2.34195,-50.9088 -1.74546,-12.7895 -5.10365,-26.3362 -8.65378,-37.7425 -1.95352,-7.3572 -5.03497,-13.9646 -7.55421,-20.7919 -1.79014,-4.9085 -8.04485,-17.4235 -13.02352,-26.047 -7.2247,-13.0394 -17.42311,-25.097 -25.83283,-34.7294 -2.52773,-2.8903 -5.71441,-6.6431 -7.06868,-8.3396 -1.55497,-1.9479 -2.4542,-3.0213 -3.05596,-3.0131 z m -63.74669,16.2794 c -1.36236,0.017 -2.02726,0.6166 -2.04206,1.8135 -0.0157,1.2678 11.53161,6.2624 15.97951,6.9116 3.7993,0.5546 7.69219,-0.1508 12.33807,-2.242 5.79048,-2.6063 7.30459,-3.624 7.31145,-4.9123 0.008,-1.5658 -0.83214,-1.6162 -5.22655,-0.3428 -3.27932,0.9504 -4.97669,1.1595 -9.32495,1.1567 -6.67685,0 -11.98911,-0.601 -15.82243,-1.785 -1.32532,-0.4093 -2.39562,-0.6099 -3.21304,-0.5997 z m -98.61886,49.0952 c -0.12066,0.024 -0.22438,0.095 -0.32844,0.1999 -0.21299,0.2145 -5.24837,8.6109 -11.19566,18.6642 -15.51689,26.2296 -18.68771,33.8562 -25.36158,51.9227 -4.10958,11.1248 -7.63784,22.6542 -8.92511,34.4438 -2.10132,19.245 -2.12626,39.1387 2.08491,58.0346 3.74028,16.783 6.6455,26.9565 20.22072,47.453 3.36245,5.0768 5.39809,7.3948 8.69662,10.6816 0.26925,0.2683 0.71261,0.6221 1.1567,0.5997 1.46358,0 0.98049,-0.976 0.81397,-2.4133 -1.19191,-9.8558 -1.69347,-34.8631 -1.17098,-57.9204 0.5321,-22.0856 2.16457,-45.3784 5.21227,-67.8594 1.8868,-13.9178 4.86506,-27.614 8.08257,-41.3553 1.75618,-6.9386 5.8139,-21.0858 9.38207,-32.6731 1.34064,-4.3536 1.41072,-4.0827 -2.98455,-11.8525 -3.46881,-6.1321 -4.8389,-8.0922 -5.68351,-7.9255 z m 135.20466,0 c -0.86074,0.1375 -2.26255,2.2314 -5.48358,7.9255 -4.39527,7.7698 -4.32519,7.4989 -2.98456,11.8525 3.56818,11.5873 7.62589,25.7345 9.38207,32.6731 3.21752,13.7413 6.1815,27.4375 8.0683,41.3553 3.0477,22.481 4.69445,45.7738 5.22654,67.8594 0.52249,23.0573 0.007,48.0646 -1.18525,57.9204 -0.16653,1.4373 -0.63533,2.4133 0.82825,2.4133 0.44409,0.022 0.88745,-0.3314 1.15669,-0.5997 3.29854,-3.2868 5.33418,-5.6048 8.69663,-10.6816 13.57521,-20.4965 16.48044,-30.67 20.22072,-47.453 4.21116,-18.8959 4.17195,-38.7896 2.07063,-58.0346 -1.28728,-11.7896 -4.80125,-23.319 -8.91083,-34.4438 -6.67388,-18.0665 -9.8447,-25.6931 -25.36159,-51.9227 -5.94729,-10.0533 -10.98266,-18.4497 -11.19565,-18.6642 -0.15609,-0.1572 -0.32973,-0.2317 -0.52837,-0.1999 z m -108.98626,24.5762 c -0.25418,0 -0.74386,0.6683 -1.0853,1.4851 -3.66369,8.3554 -5.80034,16.6791 -7.81125,25.2616 -2.30763,9.8489 -3.59958,19.9224 -4.85526,29.9598 -0.89035,7.1171 -0.7728,5.3313 -1.89926,21.4346 -0.72903,10.4216 -0.64303,14.4262 0.5712,26.047 0.92638,8.8659 1.4798,11.676 2.92744,17.3647 1.64861,6.4784 3.19716,12.8499 6.52604,18.964 4.45134,8.6578 11.68477,16.8623 19.93512,22.6198 1.79685,1.2539 3.70693,2.2803 4.25549,2.2849 1.28506,0.01 1.64747,-0.8331 0.92821,-2.6562 -0.49408,-1.0337 -0.82883,-1.8656 -1.15669,-2.8274 -2.65105,-7.7766 -4.6041,-15.7738 -6.58316,-23.748 -1.57853,-6.3602 -2.93913,-12.7785 -4.21265,-19.2068 -1.20244,-6.0694 -2.33067,-12.1565 -3.22732,-18.2786 -1.03337,-7.0555 -2.01846,-14.1334 -2.48475,-21.2489 -0.80691,-12.3132 -1.34418,-27.0765 -1.5137,-40.3843 -0.14751,-11.5806 -0.006,-22.0518 0.48552,-28.8317 0.43065,-5.9402 0.20901,-8.2396 -0.79968,-8.2396 z m 82.96779,0 c -1.0087,0 -1.23034,2.2994 -0.79969,8.2396 0.49152,6.7799 0.63304,17.2511 0.48553,28.8317 -0.16952,13.3078 -0.72107,28.0711 -1.52798,40.3843 -0.46629,7.1155 -1.4371,14.1934 -2.47047,21.2489 -0.89666,6.1221 -2.02489,12.2092 -3.22732,18.2786 -1.27353,6.4283 -2.63412,12.8466 -4.21265,19.2068 -1.97907,7.9742 -3.93211,15.9714 -6.58316,23.748 -0.32787,0.9618 -0.66261,1.7937 -1.15669,2.8274 -0.71926,1.8231 -0.35686,2.6627 0.92821,2.6562 0.54855,0 2.45863,-1.031 4.25549,-2.2849 8.25035,-5.7575 15.48378,-13.962 19.93512,-22.6198 3.32887,-6.1141 4.86315,-12.4856 6.51176,-18.964 1.44764,-5.6887 2.01534,-8.4988 2.94171,-17.3647 1.21424,-11.6208 1.30023,-15.6254 0.57121,-26.047 -1.12646,-16.1033 -1.00892,-14.3175 -1.89926,-21.4346 -1.25568,-10.0374 -2.54764,-20.1109 -4.85526,-29.9598 -2.01091,-8.5825 -4.14757,-16.9062 -7.81126,-25.2616 -0.34144,-0.8168 -0.83111,-1.4851 -1.08529,-1.4851 z m -44.11145,5.9405 c -13.76406,0.01 -14.67705,0.1 -15.20838,0.8568 -0.68724,0.9795 0.178,15.1107 0.48553,22.6627 0.32744,8.0407 0.86718,16.0776 1.44229,24.1049 0.62114,8.6693 1.20948,17.3373 2.17059,25.9756 0.81782,7.3505 1.41709,14.7689 3.07024,21.9772 1.53472,6.6925 3.79042,13.226 6.32611,19.6067 1.24649,3.1366 3.30642,8.2568 4.34117,9.1393 1.03476,-0.8825 3.09469,-6.0027 4.34118,-9.1393 2.53569,-6.3807 4.79138,-12.9142 6.32611,-19.6067 1.65315,-7.2083 2.25242,-14.6267 3.07024,-21.9772 0.96111,-8.6383 1.54945,-17.3063 2.17058,-25.9756 0.57512,-8.0273 1.11485,-16.0642 1.4423,-24.1049 0.30753,-7.552 1.17277,-21.6832 0.48553,-22.6627 -0.53133,-0.7572 -1.44432,-0.8486 -15.20839,-0.8568 -1.29992,0.053 -1.9534,0.086 -2.62755,0.086 -0.67414,0 -1.32762,-0.033 -2.62755,-0.086 z"
       id="path3034"
       inkscape:connector-curvature="0" />
  </g>
</svg>
